<?xml version="1.0" standalone="no"?>
<!DOCTYPE svg PUBLIC "-//W3C//DTD SVG 20010904//EN"
 "http://www.w3.org/TR/2001/REC-SVG-20010904/DTD/svg10.dtd">
<svg version="1.0" xmlns="http://www.w3.org/2000/svg"
 width="128.000000pt" height="128.000000pt" viewBox="0 0 128.000000 128.000000"
 preserveAspectRatio="xMidYMid meet">
<metadata>
Created by potrace 1.11, written by Peter Selinger 2001-2013
</metadata>
<g transform="translate(0.000000,128.000000) scale(0.100000,-0.100000)"
fill="#000000" stroke="none">
<path d="M751 1234 c-34 -17 -48 -30 -44 -40 7 -19 15 -18 63 7 47 25 106 22
159 -8 27 -16 33 -16 41 -3 14 23 -50 60 -114 65 -43 3 -65 -1 -105 -21z"/>
<path d="M160 1200 c-18 -18 -20 -33 -20 -140 0 -107 2 -122 20 -140 11 -11
25 -20 30 -20 6 0 10 -13 10 -28 0 -40 17 -52 72 -52 l48 0 0 -138 0 -138 -32
-9 c-25 -8 -35 -18 -43 -43 -9 -31 -10 -32 -67 -32 -96 0 -98 -4 -98 -220 0
-216 2 -220 100 -220 75 0 100 20 100 80 l0 40 360 0 360 0 0 -40 c0 -60 25
-80 100 -80 98 0 100 4 100 220 0 216 -2 220 -100 220 -53 0 -60 2 -60 20 0
27 -35 60 -64 60 -20 0 -25 6 -31 40 -5 30 -11 40 -26 40 -17 0 -19 8 -19 100
l0 100 39 0 c37 0 39 2 45 36 4 19 14 38 22 41 7 3 14 14 14 24 0 17 -8 19
-80 19 l-80 0 0 40 c0 33 -3 40 -20 40 -17 0 -20 -7 -20 -40 l0 -40 -80 0
c-72 0 -80 -2 -80 -19 0 -10 7 -21 14 -24 8 -3 18 -22 22 -41 6 -34 8 -36 45
-36 l39 0 0 -100 c0 -93 -1 -100 -20 -100 -14 0 -20 -7 -20 -22 l0 -22 -16 22
c-14 21 -22 22 -150 22 l-134 0 0 100 0 100 44 0 c65 0 76 7 76 46 0 19 5 34
10 34 5 0 19 9 30 20 18 18 20 33 20 140 0 169 14 160 -240 160 -187 0 -201
-1 -220 -20z"/>
<path d="M794 1171 c-27 -12 -35 -24 -25 -39 6 -9 15 -10 39 -1 22 7 41 8 61
1 16 -6 34 -6 42 -1 39 24 -69 60 -117 40z"/>
<path d="M820 1080 c0 -13 7 -20 20 -20 13 0 20 7 20 20 0 13 -7 20 -20 20
-13 0 -20 -7 -20 -20z"/>
</g>
</svg>
